<svg id="Layer_1" xmlns="http://www.w3.org/2000/svg" version="1.1" viewBox="0 0 200 64.8">
  <g class="shape_hover">
    <path d="M170.4,20.4c-2.5-4.7-8.2-7.8-14.6-7.8h-48.8c-1.6,0-3-.8-3.5-2.1l-2.5-6.4c-1.1-2.2-3.8-3.6-6.7-3.6h-51.4c-2.9,0-5.6,1.4-6.7,3.6l-6.1,15.4-.4.9-13.2,33.5v10.5h166.8v-10.5l-13-33.4h0Z"/>
  </g>
  <g class="shape_active">
    <path d="M203.6,54.9l-13.3-.5c-4.1-.2-7.7-2.4-8.9-5.5l-10.9-28.1c-2.5-4.7-8.2-7.8-14.6-7.8h-48.8c-1.6,0-3-.8-3.5-2.1l-2.5-6.4c-1.1-2.2-3.8-3.6-6.7-3.6h-51.4c-2.9,0-5.6,1.4-6.7,3.6l-6.1,15.4-.4.9-11.1,28.2c-1.2,3.2-4.8,5.3-8.9,5.5l-13.4.5"/>
  </g>
</svg>