<svg id="Layer_1" xmlns="http://www.w3.org/2000/svg" version="1.1" viewBox="0 0 166.9 64.8">
  <g class="shape_hover">
    <path d="M140.1,20.4c-2-4.7-6.6-7.8-11.8-7.8h-39.2c-1.3,0-2.4-.8-2.8-2.1l-2-6.4c-.9-2.2-3.1-3.6-5.4-3.6h-41.4c-2.4,0-4.5,1.4-5.4,3.6l-4.9,15.4-.3.9-10.6,33.5v10.5h134.3v-10.5l-10.4-33.4h0Z"/>
  </g>
  <g class="shape_active">
    <path d="M166.9,54.9l-10.7-.5c-3.3-.2-6.2-2.4-7.2-5.5l-8.8-28.1c-2-4.7-6.6-7.8-11.8-7.8h-39.2c-1.3,0-2.4-.8-2.8-2.1l-2-6.4c-.9-2.2-3.1-3.6-5.4-3.6h-41.4c-2.4,0-4.5,1.4-5.4,3.6l-4.9,15.4-.3.9-8.9,28.2c-1,3.2-3.9,5.3-7.2,5.5L0,54.9"/>
  </g>
</svg>